<svg width="157" height="36" viewBox="0 0 157 36" fill="none" xmlns="http://www.w3.org/2000/svg">
<path d="M16.4443 10.8261C16.2464 10.3286 15.8224 9.14241 15.7328 8.81069C15.6433 8.47897 15.7328 7.57428 15.7328 7.57428L15.4643 7.76527C15.4643 7.76527 15.2664 6.55399 14.9507 5.5337C14.6397 4.51341 13.6361 3.68411 13.1696 3.46799C13.3675 3.67908 13.5701 4.6089 13.4146 4.6089C13.2591 4.6089 12.9717 3.79971 12.4581 3.23176C11.9445 2.66381 10.8137 2.16623 10.4791 1.99535C10.1446 1.82949 9.48022 1.21128 9.21164 0.854431C8.76873 2.04058 8.63209 0.402085 8.63209 0C8.54256 0.0954952 7.89704 0.547841 7.34104 0.713701C6.78505 0.879561 6.09712 1.07055 5.60709 1.30678C5.11706 1.543 4.93801 1.92498 4.47153 2.58842C4.00506 3.25186 4.16055 2.54319 4.16055 2.18634C4.00506 2.70905 3.33598 3.1614 2.37948 4.25205C1.42298 5.34271 1.22037 6.77011 1.22037 6.77011C1.22037 6.77011 1.02247 6.38813 1.08843 5.89055C0.532437 6.71985 0.730335 7.7904 0.956503 8.38348C0.155491 9.35853 5.75176e-07 9.90135 5.75176e-07 9.90135H0.442913L5.75176e-07 10.6854L0.33454 10.5447C0.33454 10.5447 0.0895252 11.8716 0.136644 12.8919C0.17905 13.9121 1.18267 16.189 1.18267 16.189C0.292133 16.4955 0.650233 16.973 0.805724 17.2796C0.0706769 18.3954 0.292134 19.1091 0.69264 20.1998C0.890537 21.7428 1.69155 22.0494 1.69155 22.0494C1.69155 22.0494 2.45016 24.492 2.77998 25.4671C3.11453 26.4421 3.89198 27.5328 4.71655 28.5983C5.54112 29.6638 6.00759 30.3775 8.60853 30.3775C11.2095 30.3775 12.0105 28.9753 12.835 28.0052C13.6596 27.0302 14.1025 26.2712 14.6161 24.874C15.1297 23.4717 15.2616 22.2403 15.2852 21.8131C15.6197 21.788 15.7752 21.411 15.9072 21.1748C16.0391 20.9386 16.0862 20.627 16.4208 19.4911C16.8213 18.3502 16.3783 17.737 16.1522 17.2595C16.6846 16.4754 16.1946 16.3096 15.8648 16.2141C15.8412 15.812 16.4208 14.4801 16.7317 13.2688C17.0474 12.0626 16.6469 11.3288 16.4443 10.8261ZM4.51865 17.5661L4.76367 17.732L4.3396 18.5412L2.71402 18.9432L2.35592 20.1043C2.35592 20.1043 1.77636 19.6067 1.79992 18.4406C1.82348 17.2796 1.77636 16.5207 2.60093 16.4704C3.42551 16.4252 4.29248 16.4704 4.29248 16.4704C5.05109 16.4955 6.73793 16.968 7.0065 17.159C7.27508 17.35 7.38345 18.511 7.0065 19.1744C6.62956 19.8379 5.93692 20.8833 4.78252 20.8833C3.6234 20.8833 2.91192 20.6471 2.71402 20.4561C2.80354 19.9836 3.04856 19.3654 3.04856 19.3654L4.47153 19.0588L5.14061 18.1089L5.47516 18.2496L5.54112 17.0886L4.51865 17.5661ZM9.88073 27.3468C9.45666 27.4423 8.12321 27.7037 6.92169 27.3468C6.43166 27.181 5.89922 26.7286 6.56359 25.829C7.23267 24.9293 8.41063 24.8338 8.41063 24.8338C8.96663 24.8338 10.3425 25.3816 10.6111 26.2361C10.8796 27.0905 10.3048 27.2513 9.88073 27.3468ZM11.8408 26.231C10.9503 24.8539 10.1069 23.8336 8.45775 23.7884C6.81332 23.7431 5.8097 25.0248 5.16417 26.231C4.23123 25.4017 2.56324 24.1653 2.04965 20.818C2.04965 20.818 3.13808 21.5317 4.41028 21.4362C5.68248 21.3407 6.47878 21.3407 6.9264 20.818C7.88291 19.7776 7.66616 18.1139 8.42005 18.1139C9.17395 18.1139 9.28703 19.8479 9.64042 20.3204C9.99852 20.7928 10.4838 21.5015 12.7314 21.4462C14.291 21.4161 14.8658 20.8934 14.8658 20.8934C14.8658 20.8934 14.6632 23.9291 11.8408 26.231ZM14.7292 20.0138C14.0601 20.8682 12.3921 21.1044 11.1011 20.5817C11.299 19.8932 11.5016 19.4207 11.5016 19.4207L12.9481 19.0186L13.5937 18.119L13.9282 18.2848L13.9942 17.1238L12.9481 17.5762L13.2167 17.8626L12.7267 18.6718L11.2566 18.9282L10.7901 20.3505C10.7901 20.3505 9.72052 19.4006 9.70167 18.5009C9.67811 17.6013 9.74408 17.1489 10.3001 16.9831C10.8561 16.8172 11.9916 16.581 11.9916 16.581C12.7691 16.4855 14.6161 16.3448 14.8611 16.7469C15.1109 17.1389 15.3983 19.1594 14.7292 20.0138ZM8.42477 16.7368C5.27255 15.3848 3.13808 15.6461 1.69155 16.003C1.69155 16.003 1.55962 13.2286 2.00253 11.8967C2.44544 10.5698 2.95903 9.4289 3.18049 9.21278C3.46791 9.30827 5.96519 9.97171 8.42005 9.97171C10.8749 9.97171 13.1225 9.25801 13.4806 9.09215C13.702 9.5646 14.4371 10.801 14.6821 11.962C14.9271 13.1231 15.1721 14.4047 15.1486 15.998C14.2203 15.7668 11.7513 15.4099 8.42477 16.7368Z" fill="white"/>
<path d="M5.07424 33.7805C5.07424 33.7805 7.03436 33.2126 7.03436 33.0216C7.03436 32.8306 5.67735 32.4989 5.03183 32.3582C5.52186 32.0968 7.03436 32.3582 7.03436 32.3582C7.03436 32.3582 7.03436 32.1672 7.03436 31.9762C6.12027 30.981 3.9858 30.79 3.9858 30.79C3.00574 32.3582 3.40625 34.4691 3.9858 35.3688C5.05539 35.2984 5.8564 34.8008 6.43125 34.5395C7.0108 34.2781 7.07677 33.9916 7.02965 33.7805C6.96369 33.8258 5.07424 33.7805 5.07424 33.7805Z" fill="white"/>
<path d="M9.79069 31.9762C9.79069 32.1672 9.79069 32.3582 9.79069 32.3582C9.79069 32.3582 11.3032 32.0968 11.7932 32.3582C11.1477 32.4989 9.79069 32.8306 9.79069 33.0216C9.79069 33.2126 11.7508 33.7805 11.7508 33.7805C11.7508 33.7805 9.86137 33.8258 9.79069 33.7805C9.74829 33.9916 9.81425 34.2781 10.3891 34.5395C10.9687 34.8008 11.7697 35.2984 12.8345 35.3688C13.4141 34.4691 13.8146 32.3531 12.8345 30.79C12.8393 30.79 10.7048 30.976 9.79069 31.9762Z" fill="white"/>
<path d="M8.32098 31.6641C7.454 31.6641 7.36447 32.3024 7.36447 32.3024C7.36447 32.3024 7.34092 33.6795 7.36447 33.9861C7.38803 34.2927 7.74142 34.3882 8.36338 34.3882C8.98535 34.3882 9.36229 33.9861 9.36229 33.9861C9.36229 33.9861 9.36229 32.4682 9.36229 32.3024C9.36701 32.1415 9.19267 31.6641 8.32098 31.6641Z" fill="white"/>
<path d="M44.3567 23.4614V28H32.8486V10H37.9101V23.4614H44.3567Z" fill="white"/>
<path d="M62.3243 16.5057C62.3243 20.2857 59.4634 23.0371 55.6058 23.0371H52.9003V28H47.8906V10H55.6058C59.4634 10 62.3243 12.7257 62.3243 16.5057ZM57.1851 16.5186C57.1851 15.2329 56.3178 14.3329 55.0104 14.3329H52.9003V18.7043H55.0104C56.3178 18.7043 57.1851 17.7914 57.1851 16.5186Z" fill="white"/>
<path d="M79.6057 14.4614H74.6866V28H69.6769V14.4614H64.7578V10H79.6187V14.4614H79.6057Z" fill="white"/>
<path d="M89.4053 22.4971H87.593V28H82.5962V10H90.4538C94.3632 10 97.1981 12.61 97.1981 16.3643C97.1981 18.5757 96.1108 20.3886 94.3243 21.4429L97.9231 27.9871H92.3567L89.4053 22.4971ZM87.6059 18.3186H89.8842C91.2823 18.3186 92.0849 17.4829 92.0849 16.3643C92.0849 15.2457 91.2823 14.41 89.8842 14.41H87.6059V18.3186Z" fill="white"/>
<path d="M136.525 10V28H132.395L125.198 18.2286V28H120.356V10H124.732L131.696 19.4371V10H136.525Z" fill="white"/>
<path d="M156.849 18.9871C156.849 24.2457 152.965 28 147.489 28H140.163V10H147.502C152.978 10 156.849 13.7286 156.849 18.9871ZM151.735 18.9871C151.735 16.3129 149.949 14.5386 147.269 14.5386H145.185V23.4614H147.269C149.949 23.4614 151.735 21.6357 151.735 18.9871Z" fill="white"/>
<path d="M116.629 10H100.512V14.2814H116.629V10Z" fill="white"/>
<path d="M116.667 16.8525H100.551V21.134H116.667V16.8525Z" fill="white"/>
<path d="M116.629 23.7188H100.512V28.0002H116.629V23.7188Z" fill="white"/>
</svg>
