<svg width="227" height="276" viewBox="0 0 240 336" fill="none" xmlns="http://www.w3.org/2000/svg">
<rect x="1" y="1" width="238" height="334" rx="1" stroke="#3F51B5" stroke-width="2" stroke-linecap="square" stroke-dasharray="12 12"/>
<path d="M76.1113 222H73.6504V215.682H67.293V222H64.8223V207.781H67.293V213.699H73.6504V207.781H76.1113V222ZM78.4672 216.619C78.4672 215.584 78.6723 214.653 79.0824 213.826C79.4926 212.993 80.0687 212.355 80.8109 211.912C81.5531 211.463 82.406 211.238 83.3695 211.238C84.7953 211.238 85.9509 211.697 86.8363 212.615C87.7283 213.533 88.21 214.751 88.2816 216.268L88.2914 216.824C88.2914 217.866 88.0896 218.797 87.6859 219.617C87.2888 220.438 86.7159 221.072 85.9672 221.521C85.225 221.971 84.3656 222.195 83.3891 222.195C81.8982 222.195 80.7035 221.701 79.8051 220.711C78.9131 219.715 78.4672 218.39 78.4672 216.736V216.619ZM80.8402 216.824C80.8402 217.911 81.0648 218.764 81.5141 219.383C81.9633 219.995 82.5883 220.301 83.3891 220.301C84.1898 220.301 84.8116 219.988 85.2543 219.363C85.7035 218.738 85.9281 217.824 85.9281 216.619C85.9281 215.551 85.697 214.705 85.2348 214.08C84.779 213.455 84.1573 213.143 83.3695 213.143C82.5948 213.143 81.9796 213.452 81.5238 214.07C81.0681 214.682 80.8402 215.6 80.8402 216.824ZM90.5789 222V211.434H94.866C96.3113 211.434 97.4116 211.688 98.1668 212.195C98.922 212.697 99.2996 213.419 99.2996 214.363C99.2996 214.852 99.1466 215.291 98.8406 215.682C98.5411 216.066 98.0952 216.362 97.5027 216.57C98.1928 216.714 98.7397 217.003 99.1434 217.439C99.547 217.876 99.7488 218.39 99.7488 218.982C99.7488 219.965 99.3842 220.714 98.6551 221.229C97.9324 221.743 96.8908 222 95.5301 222H90.5789ZM92.952 217.498V220.125H95.5496C96.7671 220.125 97.3758 219.689 97.3758 218.816C97.3758 217.938 96.7573 217.498 95.5203 217.498H92.952ZM92.952 215.799H94.9051C96.2527 215.799 96.9266 215.402 96.9266 214.607C96.9266 213.774 96.2885 213.344 95.0125 213.318H92.952V215.799ZM104.458 214.793H106.782C107.648 214.793 108.404 214.943 109.048 215.242C109.693 215.542 110.181 215.962 110.513 216.502C110.851 217.042 111.021 217.671 111.021 218.387C111.021 219.474 110.637 220.346 109.868 221.004C109.1 221.661 108.078 221.993 106.802 222H102.085V211.434H104.458V214.793ZM115.152 222H112.779V211.434H115.152V222ZM104.458 216.697V220.105H106.773C107.352 220.105 107.808 219.962 108.14 219.676C108.478 219.383 108.648 218.969 108.648 218.436C108.648 217.902 108.482 217.482 108.15 217.176C107.824 216.863 107.381 216.704 106.821 216.697H104.458ZM124.695 211.434H127.058V222H124.695V214.949L120.554 222H118.191V211.434H120.554V218.484L124.695 211.434ZM125.808 207.381C125.808 208.201 125.522 208.865 124.949 209.373C124.376 209.881 123.611 210.135 122.654 210.135C121.697 210.135 120.932 209.881 120.359 209.373C119.786 208.865 119.5 208.201 119.5 207.381H121.277C121.277 207.811 121.397 208.146 121.638 208.387C121.886 208.621 122.224 208.738 122.654 208.738C123.084 208.738 123.419 208.621 123.66 208.387C123.901 208.146 124.021 207.811 124.021 207.381H125.808ZM139.104 220.301C139.696 220.301 140.188 220.128 140.579 219.783C140.969 219.438 141.177 219.012 141.204 218.504H143.44C143.414 219.161 143.209 219.777 142.825 220.35C142.44 220.916 141.92 221.365 141.262 221.697C140.605 222.029 139.895 222.195 139.133 222.195C137.655 222.195 136.483 221.717 135.618 220.76C134.752 219.803 134.319 218.481 134.319 216.795V216.551C134.319 214.943 134.748 213.657 135.608 212.693C136.467 211.723 137.639 211.238 139.123 211.238C140.38 211.238 141.402 211.606 142.19 212.342C142.984 213.071 143.401 214.031 143.44 215.223H141.204C141.177 214.617 140.969 214.119 140.579 213.729C140.194 213.338 139.703 213.143 139.104 213.143C138.336 213.143 137.743 213.423 137.327 213.982C136.91 214.536 136.698 215.379 136.692 216.512V216.893C136.692 218.038 136.897 218.895 137.307 219.461C137.724 220.021 138.323 220.301 139.104 220.301ZM151.645 222C151.541 221.798 151.45 221.469 151.372 221.014C150.617 221.801 149.692 222.195 148.598 222.195C147.537 222.195 146.671 221.893 146.001 221.287C145.33 220.682 144.995 219.933 144.995 219.041C144.995 217.915 145.412 217.052 146.245 216.453C147.085 215.848 148.283 215.545 149.839 215.545H151.294V214.852C151.294 214.305 151.141 213.868 150.835 213.543C150.529 213.211 150.063 213.045 149.438 213.045C148.898 213.045 148.455 213.182 148.11 213.455C147.765 213.722 147.593 214.064 147.593 214.48H145.22C145.22 213.901 145.412 213.361 145.796 212.859C146.18 212.352 146.701 211.954 147.358 211.668C148.022 211.382 148.761 211.238 149.575 211.238C150.812 211.238 151.798 211.551 152.534 212.176C153.27 212.794 153.647 213.667 153.667 214.793V219.559C153.667 220.509 153.8 221.268 154.067 221.834V222H151.645ZM149.038 220.291C149.507 220.291 149.946 220.177 150.356 219.949C150.773 219.721 151.085 219.415 151.294 219.031V217.039H150.014C149.136 217.039 148.475 217.192 148.032 217.498C147.589 217.804 147.368 218.237 147.368 218.797C147.368 219.253 147.518 219.617 147.817 219.891C148.123 220.158 148.53 220.291 149.038 220.291ZM162.849 211.434H165.212V222H162.849V214.949L158.708 222H156.345V211.434H158.708V218.484L162.849 211.434ZM163.962 207.381C163.962 208.201 163.676 208.865 163.103 209.373C162.53 209.881 161.765 210.135 160.808 210.135C159.851 210.135 159.086 209.881 158.513 209.373C157.94 208.865 157.654 208.201 157.654 207.381H159.431C159.431 207.811 159.551 208.146 159.792 208.387C160.04 208.621 160.378 208.738 160.808 208.738C161.238 208.738 161.573 208.621 161.814 208.387C162.055 208.146 162.175 207.811 162.175 207.381H163.962ZM176.152 213.318H172.724V222H170.351V213.318H166.962V211.434H176.152V213.318Z" fill="#3F51B5"/>
<circle cx="120" cy="142" r="49" stroke="#3F51B5" stroke-width="2" stroke-linecap="square" stroke-dasharray="12 12"/>
<path d="M132 143.577H121.714V153.76H118.286V143.577H108V140.183H118.286V130H121.714V140.183H132V143.577Z" fill="#3F51B5"/>
</svg>
