<svg width="24" height="24" viewBox="0 0 24 24" fill="none" xmlns="http://www.w3.org/2000/svg">
<path d="M21.1754 10.0817V8.22021H19.3509V10.0817H17.5264V11.9433H19.3509V13.8048H21.1754V11.9433H23V10.0817H21.1754Z" fill="#3F51B5"/>
<path d="M8.40374 10.0816V12.8739H12.733C12.4295 13.8351 11.8264 14.6687 11.0155 15.2478C10.2046 15.8268 9.23041 16.1195 8.24135 16.0812C7.25229 16.043 6.3026 15.6759 5.53699 15.0359C4.77139 14.3958 4.23185 13.518 4.00058 12.5361C3.76931 11.5542 3.859 10.5221 4.25598 9.59708C4.65296 8.67203 5.33546 7.90474 6.19949 7.41214C7.06352 6.91955 8.0617 6.72865 9.04192 6.86854C10.0222 7.00842 10.9307 7.47143 11.6291 8.18699L13.5643 6.21253C12.3223 4.93777 10.6729 4.16049 8.91639 4.02223C7.1599 3.88397 5.41315 4.39392 3.9942 5.45923C2.57524 6.52453 1.57847 8.07434 1.18536 9.82646C0.792246 11.5786 1.02895 13.4165 1.85237 15.0055C2.6758 16.5945 4.03117 17.829 5.6717 18.4841C7.31223 19.1392 9.1288 19.1714 10.7907 18.5749C12.4525 17.9783 13.8491 16.7927 14.7262 15.2338C15.6032 13.675 15.9024 11.8466 15.5692 10.0816H8.40374Z" fill="#3F51B5"/>
</svg>
