<svg width="24" height="24" viewBox="0 0 24 24" fill="none" xmlns="http://www.w3.org/2000/svg">
<path d="M12 12C12.9889 12 13.9556 11.7068 14.7779 11.1573C15.6001 10.6079 16.241 9.82705 16.6194 8.91342C16.9978 7.99979 17.0969 6.99446 16.9039 6.02455C16.711 5.05465 16.2348 4.16373 15.5355 3.46447C14.8363 2.76521 13.9454 2.289 12.9755 2.09608C12.0055 1.90315 11.0002 2.00217 10.0866 2.3806C9.17295 2.75904 8.39206 3.39991 7.84265 4.22215C7.29324 5.0444 7 6.0111 7 7C7 8.32609 7.52678 9.59785 8.46447 10.5355C9.40215 11.4732 10.6739 12 12 12ZM12 5C12.3956 5 12.7822 5.1173 13.1111 5.33706C13.44 5.55683 13.6964 5.86918 13.8478 6.23464C13.9991 6.60009 14.0387 7.00222 13.9616 7.39018C13.8844 7.77814 13.6939 8.13451 13.4142 8.41422C13.1345 8.69392 12.7781 8.8844 12.3902 8.96157C12.0022 9.03874 11.6001 8.99914 11.2346 8.84776C10.8692 8.69639 10.5568 8.44004 10.3371 8.11114C10.1173 7.78224 10 7.39557 10 7C10.0006 6.46975 10.2115 5.96139 10.5864 5.58645C10.9614 5.2115 11.4697 5.0006 12 5Z" fill="#3F51B5"/>
<path d="M13.895 16.0716C15.0965 15.844 16.246 15.4011 17.2871 14.7645C17.4557 14.6608 17.6021 14.5252 17.7177 14.3653C17.8333 14.2054 17.9159 14.0245 17.9609 13.8329C18.0058 13.6413 18.0121 13.4428 17.9795 13.2488C17.9468 13.0547 17.8759 12.869 17.7707 12.7022C17.6655 12.5354 17.5281 12.3908 17.3664 12.2768C17.2047 12.1628 17.0219 12.0815 16.8285 12.0376C16.635 11.9938 16.4348 11.9882 16.2391 12.0212C16.0435 12.0543 15.8564 12.1253 15.6885 12.2301C14.5741 12.9034 13.2968 13.2652 11.9918 13.2772C10.6868 13.2893 9.40284 12.9511 8.27602 12.2985C7.93321 12.0974 7.52409 12.039 7.13796 12.1359C6.75184 12.2328 6.42007 12.4772 6.21508 12.8157C6.01008 13.1543 5.94851 13.5594 6.0438 13.9428C6.13908 14.3262 6.38349 14.6566 6.72368 14.862C7.72255 15.4469 8.81588 15.8563 9.9554 16.0721L6.5512 19.4466C6.41078 19.5854 6.29933 19.7502 6.22324 19.9317C6.14714 20.1131 6.1079 20.3077 6.10776 20.5042C6.10761 20.7008 6.14657 20.8954 6.22239 21.077C6.29822 21.2586 6.40942 21.4235 6.54965 21.5625C6.68987 21.7014 6.85636 21.8116 7.03958 21.8866C7.2228 21.9617 7.41915 22.0002 7.61741 22C7.81566 21.9997 8.01192 21.9608 8.19496 21.8852C8.37799 21.8097 8.5442 21.6992 8.68408 21.5599L11.9255 18.3468L15.1669 21.5599C15.3067 21.6992 15.4729 21.8097 15.656 21.8852C15.839 21.9608 16.0353 21.9998 16.2335 22C16.4318 22.0002 16.6281 21.9617 16.8114 21.8866C16.9946 21.8116 17.1611 21.7014 17.3013 21.5625C17.4415 21.4236 17.5527 21.2586 17.6285 21.077C17.7044 20.8954 17.7433 20.7008 17.7432 20.5042C17.743 20.3077 17.7038 20.1131 17.6277 19.9317C17.5516 19.7502 17.4402 19.5854 17.2997 19.4466L13.895 16.0716Z" fill="#3F51B5"/>
</svg>
