<svg width="48" height="48" viewBox="0 0 48 48" fill="none" xmlns="http://www.w3.org/2000/svg">
<path d="M31.4298 24.98C31.4698 24.66 31.4998 24.34 31.4998 24C31.4998 23.66 31.4698 23.34 31.4298 23.02L33.5398 21.37C33.7298 21.22 33.7798 20.95 33.6598 20.73L31.6598 17.27C31.5398 17.05 31.2698 16.97 31.0498 17.05L28.5598 18.05C28.0398 17.65 27.4798 17.32 26.8698 17.07L26.4898 14.42C26.4598 14.18 26.2498 14 25.9998 14H21.9998C21.7498 14 21.5398 14.18 21.5098 14.42L21.1298 17.07C20.5198 17.32 19.9598 17.66 19.4398 18.05L16.9498 17.05C16.7198 16.96 16.4598 17.05 16.3398 17.27L14.3398 20.73C14.2098 20.95 14.2698 21.22 14.4598 21.37L16.5698 23.02C16.5298 23.34 16.4998 23.67 16.4998 24C16.4998 24.33 16.5298 24.66 16.5698 24.98L14.4598 26.63C14.2698 26.78 14.2198 27.05 14.3398 27.27L16.3398 30.73C16.4598 30.95 16.7298 31.03 16.9498 30.95L19.4398 29.95C19.9598 30.35 20.5198 30.68 21.1298 30.93L21.5098 33.58C21.5398 33.82 21.7498 34 21.9998 34H25.9998C26.2498 34 26.4598 33.82 26.4898 33.58L26.8698 30.93C27.4798 30.68 28.0398 30.34 28.5598 29.95L31.0498 30.95C31.2798 31.04 31.5398 30.95 31.6598 30.73L33.6598 27.27C33.7798 27.05 33.7298 26.78 33.5398 26.63L31.4298 24.98ZM23.9998 27.5C22.0698 27.5 20.4998 25.93 20.4998 24C20.4998 22.07 22.0698 20.5 23.9998 20.5C25.9298 20.5 27.4998 22.07 27.4998 24C27.4998 25.93 25.9298 27.5 23.9998 27.5Z" fill="black" fill-opacity="0.54"/>
</svg>
