<svg width="24" height="24" viewBox="0 0 24 24" fill="none" xmlns="http://www.w3.org/2000/svg">
<path d="M15.7852 12C17.9943 12 19.7852 10.2091 19.7852 8C19.7852 5.79086 17.9943 4 15.7852 4C13.576 4 11.7852 5.79086 11.7852 8C11.7852 10.2091 13.576 12 15.7852 12Z" fill="#3F51B5"/>
<path d="M12.3681 8.83353C12.1597 8.83353 11.7848 9.26585 11.7848 9.50022C11.7848 11.7546 10.8893 13.9166 9.2952 15.5106C7.70114 17.1047 5.53913 18.0002 3.28479 18.0002C2.85443 17.9969 2.42494 17.9611 2 17.8929C3.71814 19.0474 5.71783 19.713 7.78512 19.8187C9.85241 19.9243 11.9095 19.4659 13.7364 18.4925C15.5632 17.5191 17.0911 16.0674 18.1565 14.2926C19.2219 12.5178 19.7847 10.4868 19.7848 8.41685C19.7848 7.68122 15.1024 8.83353 12.3681 8.83353Z" fill="#3F51B5"/>
<path d="M12.3681 8.83318C10.7132 8.83403 9.07799 8.47409 7.57641 7.77844C6.07483 7.08278 4.74295 6.06814 3.67356 4.80518C3.32458 5.40171 3.13876 6.07958 3.13477 6.77068C3.13477 7.82602 3.554 8.83813 4.30024 9.58437C5.04647 10.3306 6.05859 10.7499 7.11393 10.7499C9.23875 10.7499 13.0124 10.7725 13.2608 8.78808C12.9653 8.81103 12.6695 8.83318 12.3681 8.83318Z" fill="#3F51B5"/>
<path d="M5.03064 10.0414C4.36888 10.0371 3.7189 9.86589 3.14087 9.54368C3.14056 9.56425 3.13477 9.58329 3.13477 9.60392C3.13477 10.6593 3.554 11.6714 4.30025 12.4176C5.04649 13.1639 6.05861 13.5831 7.11396 13.5831C9.31159 13.5831 12.389 11.9891 12.389 9.79146C12.389 8.28179 7.20764 10.0414 5.03064 10.0414Z" fill="#3F51B5"/>
<path d="M7.51151 12.9963C7.06813 13.2836 6.57112 13.4781 6.0505 13.5679C5.52989 13.6578 4.99646 13.6412 4.48242 13.5192C4.7223 14.3415 5.22196 15.0641 5.90667 15.5789C6.59137 16.0936 7.42433 16.3729 8.28094 16.3749C9.47543 16.2475 10.5903 15.715 11.4401 14.866C12.2899 14.017 12.8234 12.9026 12.9518 11.7082C12.9518 9.81464 8.6134 12.2887 7.51151 12.9963Z" fill="#3F51B5"/>
<path d="M17.3955 5.37897C16.0733 5.37897 15.7599 7.03937 17.4705 7.03937C18.3015 7.03752 19.1109 6.77472 19.7845 6.28807C20.458 5.80142 20.9617 5.1155 21.2245 4.32715C20.0658 5.01544 18.7431 5.37878 17.3955 5.37897Z" fill="#3F51B5"/>
<path d="M18.614 6.53548C17.6051 6.53679 16.6062 6.33513 15.6769 5.94248C12.9685 4.79697 11.3216 9.28548 15.489 9.28548C16.7551 9.28546 18.0007 8.96638 19.1108 8.35773C20.221 7.74907 21.1598 6.87047 21.8406 5.80308C20.833 6.28429 19.7307 6.53451 18.614 6.53548Z" fill="#3F51B5"/>
</svg>
