<svg width="24" height="24" viewBox="0 0 24 24" fill="none" xmlns="http://www.w3.org/2000/svg">
<path d="M21.4816 6.50546H18.1911C18.0568 6.50545 17.925 6.54187 17.8098 6.61082C17.6945 6.67977 17.6001 6.77868 17.5366 6.89702C17.5366 6.89702 16.2243 9.31395 15.8027 10.128C14.6686 12.318 13.9343 11.6305 13.9343 10.6141V7.10963C13.9343 6.81678 13.8179 6.53593 13.6109 6.32886C13.4038 6.12179 13.1229 6.00546 12.8301 6.00546H10.3561C10.0192 5.98041 9.68145 6.0419 9.37499 6.18411C9.06852 6.32631 8.8035 6.5445 8.6051 6.81796C8.6051 6.81796 9.86136 6.61484 9.86136 8.30754C9.86136 8.72728 9.88298 9.93476 9.90268 10.9475C9.90639 11.0968 9.86422 11.2436 9.78186 11.3681C9.69951 11.4926 9.58092 11.5889 9.44213 11.6438C9.30333 11.6988 9.15101 11.7099 9.00572 11.6756C8.86043 11.6412 8.72918 11.5631 8.62968 11.4518C7.61703 10.0434 6.77822 8.51785 6.13148 6.90826C6.07593 6.78785 5.98702 6.6859 5.87528 6.6145C5.76354 6.54311 5.63367 6.50526 5.50107 6.50546C4.78747 6.50546 3.35949 6.50546 2.51146 6.50546C2.42922 6.5049 2.34808 6.52431 2.27501 6.56203C2.20193 6.59974 2.1391 6.65464 2.09192 6.72199C2.04474 6.78935 2.01462 6.86715 2.00414 6.94872C1.99366 7.03028 2.00314 7.11317 2.03177 7.19027C2.93956 9.68033 6.85003 17.5055 11.3134 17.5055H13.1921C13.3889 17.5055 13.5777 17.4273 13.7169 17.2881C13.8561 17.1489 13.9343 16.9601 13.9343 16.7633V15.6289C13.9343 15.4866 13.9759 15.3474 14.054 15.2284C14.1322 15.1095 14.2434 15.016 14.374 14.9595C14.5046 14.903 14.6489 14.886 14.7891 14.9105C14.9293 14.935 15.0592 14.9999 15.1629 15.0974L17.4116 17.2101C17.6135 17.3998 17.8802 17.5054 18.1573 17.5055H21.1101C22.5342 17.5055 22.5342 16.5172 21.7578 15.7525C21.2113 15.2143 19.2394 13.1359 19.2394 13.1359C19.0706 12.9609 18.9699 12.7314 18.9555 12.4887C18.9411 12.246 19.014 12.0061 19.1611 11.8125C19.7984 10.9737 20.8409 9.60071 21.2831 9.01253C21.8874 8.20859 22.9811 6.50546 21.4816 6.50546Z" fill="#3F51B5"/>
</svg>
